<mxfile host="app.diagrams.net" modified="2024-07-19T11:07:45.234Z" agent="Mozilla/5.0 (Windows NT 10.0; Win64; x64) AppleWebKit/537.36 (KHTML, like Gecko) Chrome/124.0.0.0 YaBrowser/24.6.0.0 Safari/537.36" etag="bK7LVeRrLfAQHsPZs44E" version="24.7.1" type="device">
  <diagram name="Страница — 1" id="C1-53eLAsu4GmwQZ2fNu">
    <mxGraphModel dx="1431" dy="810" grid="0" gridSize="10" guides="1" tooltips="1" connect="1" arrows="1" fold="1" page="1" pageScale="1" pageWidth="827" pageHeight="1169" math="0" shadow="0">
      <root>
        <mxCell id="0" />
        <mxCell id="1" parent="0" />
        <mxCell id="KCTrIRaY4sIAdg-Uqqz7-1" value="" style="shape=actor;whiteSpace=wrap;html=1;" parent="1" vertex="1">
          <mxGeometry x="203" y="305.5" width="40" height="60" as="geometry" />
        </mxCell>
        <mxCell id="KCTrIRaY4sIAdg-Uqqz7-2" value="&lt;font style=&quot;font-size: 18px;&quot;&gt;Client&lt;/font&gt;" style="text;html=1;align=center;verticalAlign=middle;whiteSpace=wrap;rounded=0;" parent="1" vertex="1">
          <mxGeometry x="193" y="264" width="60" height="30" as="geometry" />
        </mxCell>
        <mxCell id="KCTrIRaY4sIAdg-Uqqz7-3" value="API GATEWAY" style="label;whiteSpace=wrap;html=1;image=img/clipart/Gear_128x128.png" parent="1" vertex="1">
          <mxGeometry x="576" y="310.5" width="153" height="60" as="geometry" />
        </mxCell>
        <mxCell id="KCTrIRaY4sIAdg-Uqqz7-5" value="SECURITY&lt;br&gt;service" style="label;whiteSpace=wrap;html=1;align=center;verticalAlign=bottom;spacingLeft=0;spacingBottom=4;imageAlign=center;imageVerticalAlign=top;image=img/clipart/Gear_128x128.png" parent="1" vertex="1">
          <mxGeometry x="887" y="215.5" width="120" height="90" as="geometry" />
        </mxCell>
        <mxCell id="KCTrIRaY4sIAdg-Uqqz7-6" value="ADMIN&lt;br&gt;service" style="label;whiteSpace=wrap;html=1;align=center;verticalAlign=bottom;spacingLeft=0;spacingBottom=4;imageAlign=center;imageVerticalAlign=top;image=img/clipart/Gear_128x128.png" parent="1" vertex="1">
          <mxGeometry x="1093" y="215.5" width="120" height="90" as="geometry" />
        </mxCell>
        <mxCell id="KCTrIRaY4sIAdg-Uqqz7-8" value="" style="shape=datastore;whiteSpace=wrap;html=1;" parent="1" vertex="1">
          <mxGeometry x="1390" y="325.5" width="60" height="60" as="geometry" />
        </mxCell>
        <mxCell id="KCTrIRaY4sIAdg-Uqqz7-10" value="DATABASE" style="text;html=1;align=center;verticalAlign=middle;whiteSpace=wrap;rounded=0;" parent="1" vertex="1">
          <mxGeometry x="1390" y="291" width="60" height="30" as="geometry" />
        </mxCell>
        <mxCell id="KCTrIRaY4sIAdg-Uqqz7-12" value="FRONT END" style="rounded=1;whiteSpace=wrap;html=1;" parent="1" vertex="1">
          <mxGeometry x="335" y="305.5" width="120" height="72" as="geometry" />
        </mxCell>
        <mxCell id="KCTrIRaY4sIAdg-Uqqz7-13" value="EUREKA&amp;nbsp;&lt;div&gt;service&lt;/div&gt;" style="label;whiteSpace=wrap;html=1;image=img/clipart/Gear_128x128.png" parent="1" vertex="1">
          <mxGeometry x="617" y="65" width="149" height="60" as="geometry" />
        </mxCell>
        <mxCell id="KCTrIRaY4sIAdg-Uqqz7-16" value="IAC&lt;br&gt;service" style="label;whiteSpace=wrap;html=1;align=center;verticalAlign=bottom;spacingLeft=0;spacingBottom=4;imageAlign=center;imageVerticalAlign=top;image=img/clipart/Gear_128x128.png" parent="1" vertex="1">
          <mxGeometry x="891" y="357.5" width="120" height="90" as="geometry" />
        </mxCell>
        <mxCell id="KCTrIRaY4sIAdg-Uqqz7-19" value="&lt;font style=&quot;font-size: 18px;&quot;&gt;Information about company Service&lt;/font&gt;" style="text;html=1;align=center;verticalAlign=middle;whiteSpace=wrap;rounded=0;" parent="1" vertex="1">
          <mxGeometry x="845" y="463.5" width="243" height="30" as="geometry" />
        </mxCell>
        <mxCell id="KCTrIRaY4sIAdg-Uqqz7-20" value="MAC&lt;div&gt;service&lt;/div&gt;" style="label;whiteSpace=wrap;html=1;align=center;verticalAlign=bottom;spacingLeft=0;spacingBottom=4;imageAlign=center;imageVerticalAlign=top;image=img/clipart/Gear_128x128.png" parent="1" vertex="1">
          <mxGeometry x="891" y="516.5" width="120" height="96" as="geometry" />
        </mxCell>
        <mxCell id="KCTrIRaY4sIAdg-Uqqz7-23" value="&lt;font style=&quot;font-size: 18px;&quot;&gt;MAIN AND CATALOG&lt;br&gt;serrvice&lt;/font&gt;" style="text;html=1;align=center;verticalAlign=middle;whiteSpace=wrap;rounded=0;" parent="1" vertex="1">
          <mxGeometry x="860" y="634.5" width="199" height="30" as="geometry" />
        </mxCell>
        <mxCell id="KCTrIRaY4sIAdg-Uqqz7-24" value="" style="endArrow=classic;startArrow=classic;html=1;rounded=0;" parent="1" edge="1">
          <mxGeometry width="50" height="50" relative="1" as="geometry">
            <mxPoint x="255" y="342" as="sourcePoint" />
            <mxPoint x="329" y="342" as="targetPoint" />
          </mxGeometry>
        </mxCell>
        <mxCell id="KCTrIRaY4sIAdg-Uqqz7-27" value="" style="endArrow=classic;startArrow=classic;html=1;rounded=0;" parent="1" edge="1">
          <mxGeometry width="50" height="50" relative="1" as="geometry">
            <mxPoint x="463" y="342" as="sourcePoint" />
            <mxPoint x="568" y="342" as="targetPoint" />
          </mxGeometry>
        </mxCell>
        <mxCell id="KCTrIRaY4sIAdg-Uqqz7-30" value="" style="endArrow=classic;startArrow=classic;html=1;rounded=0;" parent="1" edge="1">
          <mxGeometry width="50" height="50" relative="1" as="geometry">
            <mxPoint x="741" y="328" as="sourcePoint" />
            <mxPoint x="875" y="271" as="targetPoint" />
          </mxGeometry>
        </mxCell>
        <mxCell id="KCTrIRaY4sIAdg-Uqqz7-31" value="" style="endArrow=classic;startArrow=classic;html=1;rounded=0;" parent="1" edge="1">
          <mxGeometry width="50" height="50" relative="1" as="geometry">
            <mxPoint x="1017" y="262.57" as="sourcePoint" />
            <mxPoint x="1084" y="262.57" as="targetPoint" />
          </mxGeometry>
        </mxCell>
        <mxCell id="KCTrIRaY4sIAdg-Uqqz7-32" value="" style="endArrow=classic;startArrow=classic;html=1;rounded=0;" parent="1" edge="1">
          <mxGeometry width="50" height="50" relative="1" as="geometry">
            <mxPoint x="1021" y="405" as="sourcePoint" />
            <mxPoint x="1378" y="366" as="targetPoint" />
          </mxGeometry>
        </mxCell>
        <mxCell id="KCTrIRaY4sIAdg-Uqqz7-33" value="" style="endArrow=classic;startArrow=classic;html=1;rounded=0;" parent="1" edge="1">
          <mxGeometry width="50" height="50" relative="1" as="geometry">
            <mxPoint x="736" y="356" as="sourcePoint" />
            <mxPoint x="876" y="566" as="targetPoint" />
          </mxGeometry>
        </mxCell>
        <mxCell id="KCTrIRaY4sIAdg-Uqqz7-34" value="" style="endArrow=classic;startArrow=classic;html=1;rounded=0;" parent="1" edge="1">
          <mxGeometry width="50" height="50" relative="1" as="geometry">
            <mxPoint x="739" y="344" as="sourcePoint" />
            <mxPoint x="882" y="400" as="targetPoint" />
          </mxGeometry>
        </mxCell>
        <mxCell id="KCTrIRaY4sIAdg-Uqqz7-35" value="" style="endArrow=classic;startArrow=classic;html=1;rounded=0;" parent="1" edge="1">
          <mxGeometry width="50" height="50" relative="1" as="geometry">
            <mxPoint x="1227" y="271" as="sourcePoint" />
            <mxPoint x="1380" y="355" as="targetPoint" />
          </mxGeometry>
        </mxCell>
        <mxCell id="KCTrIRaY4sIAdg-Uqqz7-36" value="" style="endArrow=classic;startArrow=classic;html=1;rounded=0;" parent="1" edge="1">
          <mxGeometry width="50" height="50" relative="1" as="geometry">
            <mxPoint x="1026" y="578" as="sourcePoint" />
            <mxPoint x="1381" y="374" as="targetPoint" />
          </mxGeometry>
        </mxCell>
        <mxCell id="KCTrIRaY4sIAdg-Uqqz7-37" value="" style="endArrow=classic;startArrow=classic;html=1;rounded=0;strokeWidth=2;" parent="1" edge="1">
          <mxGeometry width="50" height="50" relative="1" as="geometry">
            <mxPoint x="680" y="305" as="sourcePoint" />
            <mxPoint x="680" y="138" as="targetPoint" />
          </mxGeometry>
        </mxCell>
        <mxCell id="KCTrIRaY4sIAdg-Uqqz7-38" value="" style="endArrow=classic;startArrow=classic;html=1;rounded=0;strokeWidth=2;" parent="1" edge="1">
          <mxGeometry width="50" height="50" relative="1" as="geometry">
            <mxPoint x="939" y="201" as="sourcePoint" />
            <mxPoint x="773" y="92" as="targetPoint" />
            <Array as="points">
              <mxPoint x="939" y="92" />
            </Array>
          </mxGeometry>
        </mxCell>
        <mxCell id="KCTrIRaY4sIAdg-Uqqz7-39" value="" style="endArrow=classic;startArrow=classic;html=1;rounded=0;strokeWidth=2;" parent="1" edge="1">
          <mxGeometry width="50" height="50" relative="1" as="geometry">
            <mxPoint x="1148" y="198" as="sourcePoint" />
            <mxPoint x="771.5" y="71" as="targetPoint" />
            <Array as="points">
              <mxPoint x="1147.5" y="71" />
            </Array>
          </mxGeometry>
        </mxCell>
        <mxCell id="KCTrIRaY4sIAdg-Uqqz7-40" value="&lt;font style=&quot;font-size: 18px;&quot;&gt;Discovery service&lt;/font&gt;" style="text;html=1;align=center;verticalAlign=middle;whiteSpace=wrap;rounded=0;" parent="1" vertex="1">
          <mxGeometry x="604.5" y="35" width="174" height="30" as="geometry" />
        </mxCell>
        <mxCell id="KCTrIRaY4sIAdg-Uqqz7-42" value="" style="endArrow=classic;startArrow=classic;html=1;rounded=0;strokeWidth=2;" parent="1" edge="1">
          <mxGeometry width="50" height="50" relative="1" as="geometry">
            <mxPoint x="879" y="374" as="sourcePoint" />
            <mxPoint x="704" y="138.5" as="targetPoint" />
            <Array as="points">
              <mxPoint x="833" y="374" />
              <mxPoint x="836" y="171.5" />
              <mxPoint x="704" y="171.5" />
            </Array>
          </mxGeometry>
        </mxCell>
        <mxCell id="KCTrIRaY4sIAdg-Uqqz7-43" value="" style="endArrow=classic;startArrow=classic;html=1;rounded=0;strokeWidth=2;" parent="1" edge="1">
          <mxGeometry width="50" height="50" relative="1" as="geometry">
            <mxPoint x="881" y="590" as="sourcePoint" />
            <mxPoint x="774" y="110" as="targetPoint" />
            <Array as="points">
              <mxPoint x="814" y="590" />
              <mxPoint x="814" y="110" />
            </Array>
          </mxGeometry>
        </mxCell>
      </root>
    </mxGraphModel>
  </diagram>
</mxfile>
